<?xml version="1.0" standalone="no"?>
<!DOCTYPE svg PUBLIC "-//W3C//DTD SVG 20010904//EN"
 "http://www.w3.org/TR/2001/REC-SVG-20010904/DTD/svg10.dtd">
<svg version="1.0" xmlns="http://www.w3.org/2000/svg"
 width="64.000000pt" height="64.000000pt" viewBox="0 0 64.000000 64.000000"
 preserveAspectRatio="xMidYMid meet">

<g transform="translate(0.000000,64.000000) scale(0.100000,-0.100000)"
fill="#000000" stroke="none">
<path d="M17 543 c-3 -5 134 -8 303 -8 169 0 306 3 303 8 -6 9 -600 9 -606 0z"/>
<path d="M425 425 c-29 -28 -33 -79 -10 -109 9 -12 15 -42 15 -74 0 -48 2 -53
18 -46 9 4 27 8 39 8 13 1 18 5 13 10 -6 6 -19 5 -35 -2 -25 -11 -25 -11 -25
31 l0 42 46 0 46 0 -4 -48 c-2 -26 0 -47 5 -47 4 0 7 25 7 55 0 34 6 65 16 80
21 32 11 89 -19 110 -33 23 -84 19 -112 -10z m95 -30 c7 -8 10 -25 6 -40 -7
-29 -49 -44 -71 -25 -15 13 -21 61 -8 73 12 13 60 7 73 -8z"/>
<path d="M17 98 c6 -10 600 -10 606 0 3 4 -134 7 -303 7 -169 0 -306 -3 -303
-7z"/>
</g>
</svg>
